<svg width="156" height="26" viewBox="0 0 156 26" fill="none" xmlns="http://www.w3.org/2000/svg">
<path d="M13 0L15.9187 8.98278H25.3637L17.7225 14.5344L20.6412 23.5172L13 17.9656L5.35879 23.5172L8.27747 14.5344L0.636266 8.98278H10.0813L13 0Z" fill="#F5B91E"/>
<path d="M45.5 0L48.4187 8.98278H57.8637L50.2225 14.5344L53.1412 23.5172L45.5 17.9656L37.8588 23.5172L40.7775 14.5344L33.1363 8.98278H42.5813L45.5 0Z" fill="#F5B91E"/>
<path d="M78 0L80.9187 8.98278H90.3637L82.7225 14.5344L85.6412 23.5172L78 17.9656L70.3588 23.5172L73.2775 14.5344L65.6363 8.98278H75.0813L78 0Z" fill="#F5B91E"/>
<path d="M110.5 0L113.419 8.98278H122.864L115.223 14.5344L118.141 23.5172L110.5 17.9656L102.859 23.5172L105.777 14.5344L98.1363 8.98278H107.581L110.5 0Z" fill="#F5B91E"/>
<path d="M143 0L145.919 8.98278H155.364L147.723 14.5344L150.641 23.5172L143 17.9656L135.359 23.5172L138.277 14.5344L130.636 8.98278H140.081L143 0Z" fill="#F5B91E"/>
</svg>
